<svg width="1100" height="74" viewBox="0 0 1100 74" fill="none" xmlns="http://www.w3.org/2000/svg">
<path fill-rule="evenodd" clip-rule="evenodd" d="M628.263 45.8743H609.755L625.309 16.3415L641.06 45.8743H628.263ZM617.631 0L578.647 73.8321H594.989L602.077 60.6408H648.936L656.024 73.8321H672.365L633.185 0H617.631Z" fill="#1A1B2F"/>
<path fill-rule="evenodd" clip-rule="evenodd" d="M746.788 52.3716L746.591 52.1747L699.535 0H682.8V73.8321H697.369V18.7041L697.566 18.901L746.985 73.8321H761.357V0H746.788V52.3716Z" fill="#1A1B2F"/>
<path fill-rule="evenodd" clip-rule="evenodd" d="M1031.68 35.4394H994.864V14.5695H1031.68C1034.44 14.5695 1037 15.7508 1038.97 17.7197C1040.94 19.6886 1041.92 22.2481 1041.92 25.0045C1041.92 27.7609 1040.94 30.3204 1038.97 32.2892C1037 34.455 1034.44 35.4394 1031.68 35.4394ZM1040.34 48.6307L1041.33 48.237C1045.86 46.2681 1049.6 43.118 1052.16 39.1802C1054.91 35.0456 1056.49 30.1235 1056.49 25.2014C1056.49 18.5072 1053.93 12.2069 1049.2 7.48165C1044.48 2.55951 1038.38 0 1031.68 0H980.491V73.8321H994.864V50.0089H1022.23L1042.9 73.8321H1062.2L1040.34 48.6307Z" fill="#1A1B2F"/>
<path fill-rule="evenodd" clip-rule="evenodd" d="M553.84 29.5328H504.816V0H490.246V73.8321H504.816V44.2993H553.84V73.8321H568.213V0H553.84V29.5328Z" fill="#1A1B2F"/>
<path fill-rule="evenodd" clip-rule="evenodd" d="M275.837 0H268.946L245.517 53.5529L221.891 0H215H201.218V73.8321H215.984V19.8854L239.61 73.8321H251.227L275.05 19.6886V73.8321H289.619V0H275.837Z" fill="#1A1B2F"/>
<path fill-rule="evenodd" clip-rule="evenodd" d="M145.893 45.8912H127.386L142.94 16.3584L158.691 45.8912H145.893ZM135.262 0.0168457L96.2783 73.849H112.62L119.708 60.6576H166.566L173.654 73.849H189.996L150.816 0.0168457H135.262Z" fill="#1A1B2F"/>
<path fill-rule="evenodd" clip-rule="evenodd" d="M40.7559 41.9535V42.741H77.7704V42.9379C75.014 52.3884 66.351 59.0825 56.5067 59.0825H36.8182C24.8081 59.0825 14.9639 49.2383 14.767 37.2282C14.5701 31.3217 16.9327 25.612 21.0673 21.4774C25.3988 17.1459 31.3054 14.5864 37.2119 14.5864H55.1285C63.004 14.5864 69.5012 8.67981 70.4856 0.804388V0.0168457H36.6213C26.777 0.0168457 17.5234 3.95456 10.4355 11.0424C3.5445 18.1303 -0.196326 27.5808 0.000559625 37.4251C0.394331 57.5074 16.9327 73.849 37.2119 73.849H55.9161H56.113C75.9984 73.6521 92.5368 57.3106 92.9306 37.4251C92.9306 37.2282 92.9306 37.0313 92.9306 37.0313C92.9306 36.8345 92.9306 36.8345 92.9306 36.6376V36.4407V28.1715H56.113C48.2375 28.1715 41.5434 34.0781 40.7559 41.9535Z" fill="#1A1B2F"/>
<path fill-rule="evenodd" clip-rule="evenodd" d="M818.848 41.9366V42.7242H855.863V42.9211C853.106 52.3716 844.443 59.0657 834.599 59.0657H814.91C802.9 59.0657 793.056 49.2214 792.859 37.2114C792.662 31.3048 795.025 25.5951 799.159 21.4605C803.491 17.129 809.398 14.5695 815.304 14.5695H833.221C841.096 14.5695 847.593 8.66297 848.578 0.787543V0H814.91C805.066 0 795.812 3.93771 788.725 11.0256C781.834 18.1135 778.093 27.564 778.093 37.4083C778.487 57.4906 795.025 73.8321 815.304 73.8321H834.008H834.205C854.288 73.6352 870.826 57.2937 871.023 37.6052C871.023 37.4083 871.023 37.2114 871.023 37.2114C871.023 37.0145 871.023 37.0145 871.023 36.8176V36.6207V28.3515H834.205C826.133 28.3515 819.636 34.2581 818.848 41.9366Z" fill="#1A1B2F"/>
<path fill-rule="evenodd" clip-rule="evenodd" d="M432.165 14.5695H459.139C467.014 14.5695 473.511 8.66297 474.496 0.787543V0H432.165C422.321 0 413.067 3.93771 405.979 11.0256C399.088 18.1135 395.348 27.564 395.348 37.4083C395.741 57.4906 412.28 73.8321 432.559 73.8321H458.942C466.817 73.8321 473.314 67.9255 474.299 60.0501V59.2626H432.362C426.259 59.2626 420.352 56.7031 416.218 52.3716C412.083 48.0401 409.72 42.5273 409.917 36.6207C410.311 24.4138 420.155 14.5695 432.165 14.5695Z" fill="#1A1B2F"/>
<path fill-rule="evenodd" clip-rule="evenodd" d="M371.328 14.5695C379.203 14.5695 385.701 8.66297 386.488 0.787543V0H310.49V73.8321H371.328C379.203 73.8321 385.701 67.9255 386.488 60.0501V59.2626H324.863V44.2993H352.427C359.909 44.2993 366.209 38.1958 366.209 30.5173V29.5328H325.06V14.5695H371.328Z" fill="#1A1B2F"/>
<path fill-rule="evenodd" clip-rule="evenodd" d="M948.793 14.5695C956.668 14.5695 963.165 8.66297 963.953 0.787543V0H887.955V73.8321H948.793C956.668 73.8321 963.165 67.9255 963.953 60.0501V59.2626H902.328V44.2993H929.695C937.177 44.2993 943.477 38.1958 943.477 30.5173V29.5328H902.328V14.5695H948.793Z" fill="#1A1B2F"/>
<path fill-rule="evenodd" clip-rule="evenodd" d="M1081.49 73.832H1079.52V63.2002H1075.78V61.4282H1085.04V63.2002H1081.49V73.832Z" fill="#1A1B2F"/>
<path fill-rule="evenodd" clip-rule="evenodd" d="M1092.72 73.832L1089.17 63.594C1089.17 65.169 1089.37 66.5472 1089.37 67.9254V73.832H1087.6V61.4282H1090.35L1093.7 71.2725L1097.24 61.4282H1100V73.832H1098.03V67.7286C1098.03 67.1379 1098.03 66.3504 1098.03 65.3659C1098.03 64.3815 1098.03 63.7908 1098.03 63.594L1094.29 73.832H1092.72Z" fill="#1A1B2F"/>
</svg>
