<?xml version="1.0" encoding="UTF-8"?>
<svg id="Layer_2" data-name="Layer 2" xmlns="http://www.w3.org/2000/svg" xmlns:xlink="http://www.w3.org/1999/xlink" viewBox="0 0 154.56 34.54">
  <defs>
    <style>
      .cls-1 {
        clip-path: url(#clippath);
      }

      .cls-2 {
        fill: none;
      }

      .cls-2, .cls-3 {
        stroke-width: 0px;
      }

      .cls-3 {
        fill: #010101;
        fill-rule: evenodd;
      }
    </style>
    <clipPath id="clippath">
      <rect class="cls-2" width="154.56" height="34.54"/>
    </clipPath>
  </defs>
  <g id="Layer_1-2" data-name="Layer 1">
    <g class="cls-1">
      <g>
        <path class="cls-3" d="M7.57,0H0v1.23h7.57V0ZM7.57,24.52H0v1.23h7.57v-1.23ZM2.52,4.9h5.05v1.23H2.52v-1.23ZM7.57,17.17H2.52v1.23h5.05v-1.23ZM0,12.26h7.57v1.23H0v-1.23ZM7.57,2.45H2.52v1.23h5.05v-1.23ZM2.52,14.71h5.05v1.23H2.52v-1.23ZM7.57,7.36H2.52v1.23h5.05v-1.23ZM2.52,19.62h5.05v1.23H2.52v-1.23ZM7.57,9.81H2.52v1.23h5.05v-1.23ZM2.52,22.07h5.05v1.23H2.52v-1.23Z"/>
        <path class="cls-3" d="M12.64,0h-3.81v4.9h1.26c3.78,0,4.41,1.96,4.41,3.44s-1.26,3.31-4.41,3.31h-1.26v4.29l6.31,9.81h8.83l-8.34-10.53c1.59-.35,2.46-.77,3.38-1.55,1.51-1.27,2.44-3.25,2.44-5.72,0-3.04-1.89-7.95-8.8-7.95ZM113.07,16.94c-.03,2.2,1.79,4.01,4.05,4.04,2.27.03,4.13-1.74,4.16-3.94.03-2.2-1.79-4.01-4.05-4.04h-.08c-2.24,0-4.05,1.76-4.09,3.94h0ZM127.44,0v25.73h-6.35v-1.93c-1.39,1.74-3.13,2.5-5.55,2.5-5.12,0-9.09-4.08-9.09-9.37s3.93-9.26,9.05-9.26c2.11-.08,4.16.76,5.59,2.28V0h6.35ZM94.07,20.91c-2.27,0-4.09-1.81-4.09-4.01.03-2.18,1.84-3.95,4.09-3.97h.04c2.27,0,4.09,1.81,4.09,4.01,0,2.21-1.87,3.98-4.13,3.97ZM93.99,26.39c6.43,0,10.92-3.85,10.92-9.41s-4.49-9.37-10.84-9.37c-2.9,0-5.76.92-7.54,2.43-2.04,1.7-3.22,4.17-3.25,6.79,0,5.63,4.28,9.57,10.71,9.57ZM79.47,12.77h0s2.13-4,2.13-4c-1.83-.78-3.8-1.17-5.79-1.12-4.96,0-8.01,2.43-8.01,6.32,0,2.74,1.47,4.09,5.28,4.86,2.15.47,2.7.77,2.7,1.58s-.83,1.39-1.98,1.39c-1.46,0-3.4-.7-5.07-1.78l-2.3,4.36c2.15,1.3,4.64,1.99,7.18,2,5.2,0,8.57-2.58,8.57-6.55,0-2.82-1.67-4.48-5.23-5.17-2.39-.5-2.86-.73-2.86-1.5,0-.7.79-1.23,1.95-1.23,1.21.02,2.38.3,3.45.84v.02s0-.02,0-.02ZM55.74,20.99c-2.26-.02-4.09-1.81-4.09-4.01h0c.02-2.18,1.84-3.95,4.09-3.97h.04c2.27.02,4.1,1.81,4.09,4.01-.02,2.2-1.87,3.98-4.13,3.97ZM45.51,8.25v25.74h0s6.35,0,6.35,0v-9.96c1.43,1.52,3.47,2.36,5.59,2.28,5.12,0,9.04-3.98,9.04-9.26s-3.96-9.37-9.09-9.37c-2.42,0-4.17.77-5.55,2.5v-1.93h-6.35ZM32.86,20.99c-2.26-.03-4.09-1.85-4.05-4.05.04-2.18,1.85-3.93,4.09-3.94h.08c2.26.03,4.09,1.85,4.05,4.05-.04,2.2-1.9,3.97-4.17,3.94ZM43.17,25.73V8.27h-6.34v1.69c-1.43-1.52-3.48-2.36-5.6-2.28-5.13,0-9.05,3.97-9.05,9.26s3.97,9.37,9.09,9.37c2.42,0,4.16-.77,5.55-2.5v1.93h6.35ZM139.86,20.9c-2.27,0-4.09-1.8-4.09-4.01.03-2.18,1.84-3.95,4.09-3.97h.04c2.27,0,4.1,1.8,4.09,4.01,0,2.21-1.86,3.98-4.12,3.97ZM139.78,26.39c6.43,0,10.92-3.85,10.92-9.41h0c0-5.47-4.48-9.37-10.83-9.37-2.9,0-5.76.92-7.54,2.43-2.04,1.7-3.22,4.17-3.25,6.79,0,5.63,4.28,9.57,10.71,9.57ZM152.19,4.64c1.31-.01,2.37-1.05,2.36-2.33h0c0-.46-.13-.89-.39-1.27-.24-.37-.6-.67-1.02-.85-.31-.14-.65-.2-1-.2-.55,0-1.08.19-1.5.53-.27.21-.49.49-.64.8-.16.3-.23.64-.23.98v.04c.01,1.28,1.08,2.3,2.4,2.29ZM150.76.92c.36-.38.87-.59,1.39-.58h0c.42-.01.83.12,1.18.36.25.18.46.42.6.7.15.28.23.6.23.91.01.53-.2,1.04-.58,1.41l-.05.05c-.78.73-2.02.71-2.77-.05-.38-.37-.59-.88-.58-1.41-.01-.52.2-1.02.58-1.39ZM153.3,3.65l-.89-1.12h.01s.04,0,.04,0c.16-.05.3-.15.4-.28.1-.14.16-.3.16-.47,0-.24-.1-.46-.3-.6-.25-.15-.54-.22-.84-.2h-.55v2.66h.52v-1.06l.81,1.06h.64ZM151.93,2.16h-.09v-.73h.11c.36,0,.54.12.54.35,0,.25-.19.38-.57.38Z"/>
      </g>
    </g>
  </g>
</svg>